<svg width="10" height="40" viewBox="0 0 10 40" fill="none" xmlns="http://www.w3.org/2000/svg">
<path d="M7.47169 1.02384C6.10669 -0.341158 3.89342 -0.341158 2.52822 1.02384C1.29822 2.25384 1.15976 4.5698 2.20361 5.96153L4.99995 9.99999L7.7963 5.96153C8.84015 4.5698 8.70169 2.25384 7.47169 1.02384ZM5.03399 4.61538C4.39669 4.61538 3.88015 4.09884 3.88015 3.46153C3.88015 2.82423 4.39669 2.30769 5.03399 2.30769C5.6713 2.30769 6.18784 2.82423 6.18784 3.46153C6.18784 4.09884 5.6713 4.61538 5.03399 4.61538Z" fill="#22333E"/>
<path d="M6.62878 15.0513L10 17.1825V12.83L6.62878 15.0513Z" fill="#22333E"/>
<path d="M0 12.83V17.1825L3.37125 15.0513L0 12.83Z" fill="#22333E"/>
<path d="M9.37505 11.5625H0.625049C0.313174 11.5625 0.0656738 11.795 0.0187988 12.0944L5.00005 15.3763L9.9813 12.0944C9.93442 11.795 9.68692 11.5625 9.37505 11.5625Z" fill="#22333E"/>
<path d="M6.05627 15.4287L5.17189 16.0112C5.11939 16.0456 5.06002 16.0625 5.00002 16.0625C4.94002 16.0625 4.88064 16.0456 4.82814 16.0112L3.94377 15.4281L0.0200195 17.91C0.0681445 18.2069 0.314394 18.4375 0.625019 18.4375H9.37502C9.68564 18.4375 9.93189 18.2069 9.98002 17.91L6.05627 15.4287Z" fill="#22333E"/>
<g clip-path="url(#clip0)">
<path d="M9.7125 25.9786C9.785 25.6574 9.8225 25.3245 9.8225 24.983C9.8225 22.4215 7.6875 20.3446 5.05313 20.3446C4.77563 20.3446 4.50313 20.368 4.2375 20.4124C3.81125 20.1517 3.30688 20 2.76625 20C1.23813 20 0 21.204 0 22.6903C0 23.1866 0.13875 23.6508 0.38 24.0509C0.316875 24.3517 0.283125 24.6637 0.283125 24.983C0.283125 27.5451 2.41875 29.622 5.0525 29.622C5.35125 29.622 5.64313 29.5949 5.92625 29.5443C6.31625 29.7478 6.76125 29.8637 7.23437 29.8637C8.76187 29.8637 10 28.6591 10 27.174C10 26.7443 9.89625 26.3393 9.7125 25.9786ZM7.49937 27.1999C7.27875 27.5038 6.95312 27.7442 6.53 27.9144C6.11187 28.0839 5.61125 28.1702 5.04 28.1702C4.355 28.1702 3.78062 28.0531 3.33187 27.8213C3.01125 27.653 2.7475 27.4255 2.54687 27.1432C2.34375 26.8596 2.24187 26.5778 2.24187 26.3054C2.24187 26.1358 2.30875 25.9885 2.44062 25.8683C2.57125 25.7481 2.73875 25.6883 2.93875 25.6883C3.1025 25.6883 3.24375 25.7357 3.35875 25.8301C3.46813 25.9207 3.5625 26.0551 3.63813 26.2271C3.7225 26.4157 3.81437 26.5748 3.91125 26.6987C4.00562 26.8201 4.14 26.9212 4.31188 27.0007C4.485 27.0797 4.71812 27.121 5.00437 27.121C5.39875 27.121 5.7225 27.039 5.965 26.8774C6.20312 26.7202 6.31813 26.5304 6.31813 26.2986C6.31813 26.1161 6.2575 25.9718 6.13437 25.859C6.00437 25.7407 5.83313 25.6488 5.62563 25.5853C5.40875 25.52 5.11437 25.4484 4.75062 25.3745C4.255 25.2715 3.83437 25.1495 3.50062 25.0107C3.15875 24.869 2.8825 24.6729 2.68125 24.4276C2.47625 24.1779 2.3725 23.8653 2.3725 23.4979C2.3725 23.1477 2.48125 22.8321 2.69625 22.5596C2.90938 22.289 3.22062 22.0775 3.6225 21.9339C4.01813 21.7915 4.48875 21.7194 5.02187 21.7194C5.4475 21.7194 5.82187 21.7674 6.135 21.8624C6.44938 21.9573 6.71438 22.0856 6.9225 22.244C7.1325 22.4043 7.28875 22.5738 7.38625 22.7513C7.485 22.9301 7.53563 23.1083 7.53563 23.2803C7.53563 23.4461 7.47 23.5972 7.34 23.7279C7.20875 23.8604 7.04375 23.927 6.85 23.927C6.67375 23.927 6.535 23.8844 6.43938 23.8024C6.35 23.7254 6.25688 23.6052 6.15438 23.4338C6.03563 23.2143 5.89125 23.0411 5.72625 22.9184C5.56562 22.7994 5.29813 22.7403 4.92938 22.7403C4.58813 22.7403 4.30938 22.8068 4.10313 22.9388C3.90438 23.0651 3.8075 23.2106 3.8075 23.3832C3.8075 23.4887 3.83875 23.5768 3.90312 23.6526C3.97062 23.734 4.06625 23.8037 4.1875 23.8629C4.3125 23.9239 4.44188 23.9732 4.57125 24.0077C4.70375 24.0435 4.92562 24.0971 5.23125 24.1656C5.6175 24.2457 5.97188 24.3363 6.28563 24.4343C6.60375 24.5324 6.8775 24.6538 7.1025 24.7962C7.33063 24.9411 7.51125 25.126 7.64 25.348C7.76875 25.5717 7.83375 25.8461 7.83375 26.1654C7.83313 26.547 7.72062 26.8953 7.49937 27.1999Z" fill="#22333E"/>
</g>
<g clip-path="url(#clip1)">
<path d="M9.27879 30H0.721207C0.322876 30 0 30.3229 0 30.7212V39.2788C0 39.6771 0.322876 40 0.721207 40H9.27879C9.67712 40 10 39.6771 10 39.2788V30.7212C10 30.3229 9.67712 30 9.27879 30V30ZM3.54706 37.5586H2.32933V33.895H3.54706V37.5586ZM2.93823 33.3948H2.9303C2.52167 33.3948 2.25739 33.1135 2.25739 32.7619C2.25739 32.4024 2.52975 32.1289 2.94632 32.1289C3.36288 32.1289 3.61923 32.4024 3.62717 32.7619C3.62717 33.1135 3.36288 33.3948 2.93823 33.3948ZM7.93793 37.5586H6.72035V35.5987C6.72035 35.1061 6.54404 34.7702 6.10344 34.7702C5.76706 34.7702 5.56671 34.9968 5.47867 35.2155C5.44647 35.2938 5.43861 35.4032 5.43861 35.5127V37.5586H4.22096C4.22096 37.5586 4.23691 34.2387 4.22096 33.895H5.43861V34.4138C5.60043 34.1641 5.88997 33.8091 6.53603 33.8091C7.33719 33.8091 7.93793 34.3327 7.93793 35.4579V37.5586Z" fill="#22333E"/>
</g>
<defs>
<clipPath id="clip0">
<rect width="10" height="9.86368" fill="white" transform="translate(0 20)"/>
</clipPath>
<clipPath id="clip1">
<rect width="10" height="10" fill="white" transform="translate(0 30)"/>
</clipPath>
</defs>
</svg>
