<svg width="25" height="275" viewBox="0 0 25 275" fill="none" xmlns="http://www.w3.org/2000/svg">
<mask id="mask0" mask-type="alpha" maskUnits="userSpaceOnUse" x="0" y="200" width="25" height="25">
<circle cx="12.5" cy="212.5" r="12.5" fill="#084581"/>
</mask>
<g mask="url(#mask0)">
<circle cx="12.5" cy="212.5" r="12.5" fill="#084581"/>
<path d="M18.0469 217.36C18.0487 217.092 17.9468 216.838 17.7573 216.645C17.5679 216.454 17.3141 216.348 17.046 216.348H5.96875V218.352H17.0264C17.584 218.352 18.0415 217.907 18.0469 217.36Z" fill="#FFFDF4"/>
<path d="M5.44681 219.96H17.0192C18.4615 219.96 19.65 218.8 19.6553 217.358C19.6589 215.916 18.4865 214.74 17.046 214.74H5.44681C5.20017 214.74 5 214.94 5 215.186V215.365C5 215.612 5.20017 215.812 5.44681 215.812H17.046C17.5375 215.812 17.9771 216.044 18.2577 216.405C18.4651 216.67 18.5866 217.004 18.583 217.365C18.5794 217.713 18.4579 218.033 18.2577 218.289C17.9718 218.654 17.5232 218.888 17.0263 218.888H5.44681C5.20017 218.888 5 219.088 5 219.335V219.513C5 219.76 5.20017 219.96 5.44681 219.96Z" fill="#FFFDF4"/>
<path d="M10.3832 214.203C10.4529 214.211 13.0944 214.211 13.1641 214.203C14.3687 214.069 15.3124 212.802 15.3124 211.258C15.3124 209.625 14.2561 208.3 12.9532 208.3C12.6744 208.3 12.4063 208.361 12.1579 208.472C12.0775 208.507 11.9935 208.533 11.9077 208.545C11.9059 208.482 11.9077 208.416 11.9148 208.341C11.9559 207.81 12.2526 207.283 12.6976 206.988C12.8174 206.908 12.8692 206.751 12.7941 206.622C12.7245 206.502 12.5493 206.445 12.4278 206.525C11.779 206.956 11.3876 207.7 11.3769 208.466C11.132 208.359 10.8693 208.3 10.5958 208.3C9.29297 208.3 8.2367 209.625 8.2367 211.258C8.23493 212.802 9.17859 214.069 10.3832 214.203Z" fill="#FFFDF4"/>
<path d="M10.7317 208C10.9587 208.025 11.1535 207.834 11.1267 207.607C11.0677 207.074 10.7603 206.197 9.40559 206.004C9.17682 205.971 8.97665 206.163 8.99989 206.393C9.05529 206.94 9.35733 207.844 10.7317 208Z" fill="#FFFDF4"/>
</g>
<mask id="mask1" mask-type="alpha" maskUnits="userSpaceOnUse" x="0" y="175" width="25" height="25">
<circle cx="12.5" cy="187.5" r="12.5" fill="#084581"/>
</mask>
<g mask="url(#mask1)">
<circle cx="12.5" cy="187.5" r="12.5" fill="#084581"/>
<g clip-path="url(#clip0)">
<path d="M7.92969 187.274C8.23695 187.274 8.51506 187.151 8.72057 186.953L9.84797 187.516C9.84232 187.562 9.83398 187.607 9.83398 187.655C9.83398 188.285 10.3466 188.797 10.9766 188.797C11.6066 188.797 12.1191 188.285 12.1191 187.655C12.1191 187.479 12.0759 187.314 12.0046 187.165L13.534 185.636C13.6829 185.707 13.8476 185.75 14.0234 185.75C14.6534 185.75 15.166 185.238 15.166 184.608C15.166 184.489 15.1427 184.377 15.109 184.269L16.4378 183.273C16.6191 183.394 16.8364 183.465 17.0703 183.465C17.7003 183.465 18.2129 182.953 18.2129 182.323C18.2129 181.693 17.7003 181.18 17.0703 181.18C16.4403 181.18 15.9277 181.693 15.9277 182.323C15.9277 182.441 15.951 182.553 15.9848 182.661L14.6559 183.657C14.4746 183.536 14.2573 183.465 14.0234 183.465C13.3934 183.465 12.8809 183.978 12.8809 184.608C12.8809 184.784 12.9241 184.948 12.9954 185.097L11.466 186.627C11.3171 186.555 11.1524 186.512 10.9766 186.512C10.6693 186.512 10.3912 186.635 10.1857 186.833L9.05828 186.27C9.06393 186.224 9.07227 186.179 9.07227 186.131C9.07227 185.501 8.55969 184.989 7.92969 184.989C7.29968 184.989 6.78711 185.501 6.78711 186.131C6.78711 186.761 7.29968 187.274 7.92969 187.274Z" fill="#FFFDF4"/>
<path d="M18.6191 193.418H18.2129V185.37C18.2129 185.159 18.0425 184.989 17.832 184.989H16.3086C16.0981 184.989 15.9277 185.159 15.9277 185.37V193.418H15.166V187.655C15.166 187.444 14.9956 187.274 14.7852 187.274H13.2617C13.0513 187.274 12.8809 187.444 12.8809 187.655V193.418H12.1191V190.702C12.1191 190.491 11.9487 190.321 11.7383 190.321H10.2148C10.0044 190.321 9.83398 190.491 9.83398 190.702V193.418H9.07227V189.178C9.07227 188.968 8.90187 188.797 8.69141 188.797H7.16797C6.9575 188.797 6.78711 188.968 6.78711 189.178V193.418H6.38086C6.17039 193.418 6 193.589 6 193.799C6 194.01 6.17039 194.18 6.38086 194.18H18.6191C18.8296 194.18 19 194.01 19 193.799C19 193.589 18.8296 193.418 18.6191 193.418Z" fill="#FFFDF4"/>
</g>
</g>
<mask id="mask2" mask-type="alpha" maskUnits="userSpaceOnUse" x="0" y="150" width="25" height="25">
<circle cx="12.5" cy="162.5" r="12.5" fill="#084581"/>
</mask>
<g mask="url(#mask2)">
<circle cx="12.5" cy="162.5" r="12.5" fill="#084581"/>
<g clip-path="url(#clip1)">
<path d="M7.22412 165.724C7.22412 168.638 9.58623 171 12.5 171C15.4138 171 17.7759 168.638 17.7759 165.724C17.7759 162.793 16.3104 160.448 17.2936 158.397C17.2936 158.397 15.7241 158.69 14.8448 161.034C14.8448 161.034 11.9138 158.103 13.1384 154C13.1384 154 10.1552 155.172 10.4672 158.983C10.7347 162.25 10.1552 162.793 10.1552 162.793C10.1552 160.155 8.09278 158.983 8.09278 158.983C8.68964 162.207 7.22412 163.086 7.22412 165.724Z" fill="white"/>
<path d="M16.3083 166.974C16.3083 169.168 14.6139 171.042 12.4198 170.999C10.3549 170.959 8.81866 169.388 8.98285 167.336C9.05613 166.42 9.75223 164.936 10.888 163.434L11.6452 163.892C11.6207 162.036 12.5001 159.569 12.5001 159.569C13.0777 162.168 16.3083 162.842 16.3083 166.974Z" fill="#07467B"/>
<path d="M11.0345 165.138C10.7414 166.897 10.1552 167.537 10.1552 168.655C10.1552 169.828 11.205 171 12.5 171C13.8043 171 14.8484 169.934 14.8448 168.63C14.835 165.127 12.7931 163.379 12.7931 163.379C13.0862 165.138 12.2069 166.017 12.2069 166.017C11.8406 165.468 11.0345 165.138 11.0345 165.138Z" fill="white"/>
</g>
</g>
<mask id="mask3" mask-type="alpha" maskUnits="userSpaceOnUse" x="0" y="125" width="25" height="25">
<circle cx="12.5" cy="137.5" r="12.5" fill="#084581"/>
</mask>
<g mask="url(#mask3)">
<circle cx="12.5" cy="137.5" r="12.5" fill="#084581"/>
<g clip-path="url(#clip2)">
<path d="M19.4437 134.316C19.1581 134.338 18.5651 134.015 18.4006 133.934C17.8201 133.642 17.0191 133.186 16.4914 132.823C16.4542 132.798 16.4045 132.764 16.3672 132.742C16.1313 132.59 15.8798 132.487 15.6004 132.428C14.0669 132.102 11.8317 132.065 11.8317 132.065L11.7013 132.059C11.602 132.053 11.5151 132.121 11.5027 132.217C11.4871 132.323 11.5647 132.419 11.6734 132.428L14.9982 132.745C15.3645 132.785 15.6563 133.127 15.616 133.512C15.5756 133.897 15.2217 134.179 14.8554 134.139L11.9 134.176C11.6982 134.179 11.3754 134.229 11.1829 134.285C9.27682 134.84 8.2027 134.319 7.63149 134.077C7.50421 134.288 7.26207 134.424 6.99199 134.406L5.71609 134.322C5.29079 134.294 4.97104 133.94 5.00208 133.53L5.20697 130.699C5.23491 130.289 5.60433 129.982 6.02653 130.01L7.30243 130.094C7.57251 130.112 7.78982 130.277 7.88605 130.504L13.4864 130.261C14.1103 130.196 14.694 130.271 15.2434 130.559L15.4049 130.643L19.6361 133.121C19.8441 133.242 19.9931 133.453 19.9994 133.689C20.0118 133.971 19.8472 134.288 19.4437 134.316ZM6.49529 130.681C6.25625 130.681 6.06068 130.867 6.06068 131.1C6.06068 131.332 6.25625 131.519 6.49529 131.519C6.73433 131.519 6.9299 131.332 6.9299 131.1C6.9299 130.867 6.73433 130.681 6.49529 130.681Z" fill="white"/>
<path d="M16.4293 133.434C16.8608 133.735 17.7455 134.216 18.2453 134.468C18.3974 134.542 18.5558 134.62 18.7265 134.679C18.5092 134.825 18.2764 134.831 18.0342 134.738C17.5593 134.549 16.6838 134.126 16.2368 133.884C16.2337 133.878 16.2306 133.872 16.2306 133.866C16.2616 133.772 16.2865 133.676 16.2958 133.577C16.3051 133.496 16.302 133.419 16.2989 133.341C16.3392 133.372 16.3827 133.403 16.4293 133.434Z" fill="white"/>
<path d="M17.5717 135.02C17.3544 135.16 17.1247 135.166 16.8887 135.073C16.5938 134.958 15.9388 134.744 15.647 134.589C15.7711 134.511 15.8829 134.415 15.9791 134.303C15.9978 134.316 16.0164 134.331 16.0381 134.344L16.2523 134.462C16.5628 134.632 17.2302 134.868 17.5717 135.02Z" fill="white"/>
<path d="M17.1464 140.528C17.9753 140.882 18.5589 141.708 18.5589 142.667C18.5589 143.952 17.5159 144.992 16.2338 144.992C14.9516 144.992 13.9086 143.949 13.9086 142.667C13.9086 142.655 13.9117 142.642 13.9117 142.63C15.2931 142.484 16.479 141.674 17.1464 140.528Z" fill="white"/>
<path d="M13.4678 135.017C15.3335 135.017 16.8453 136.529 16.8453 138.395C16.8453 140.261 15.3335 141.772 13.4678 141.772C11.602 141.772 10.0902 140.261 10.0902 138.395C10.0902 136.529 11.602 135.017 13.4678 135.017ZM12.2881 137.06C12.3192 137.172 12.3502 137.284 12.3843 137.392C12.4247 137.519 12.4589 137.535 12.5768 137.476C12.7786 137.37 12.9897 137.315 13.2132 137.287C13.356 137.268 13.4988 137.284 13.6292 137.343C13.8776 137.451 13.9179 137.74 13.7068 137.911C13.6354 137.97 13.5547 138.013 13.4709 138.05C13.2536 138.147 13.027 138.218 12.819 138.342C12.4868 138.541 12.2726 138.817 12.2974 139.221C12.3254 139.68 12.5861 139.966 13.0052 140.118C13.1791 140.18 13.1791 140.18 13.1822 140.36C13.1822 140.422 13.1822 140.484 13.1822 140.543C13.1853 140.68 13.2101 140.705 13.3436 140.708C13.3871 140.708 13.4274 140.708 13.4709 140.708C13.7596 140.708 13.7596 140.708 13.7627 140.419C13.7627 140.214 13.7627 140.214 13.9676 140.18C14.1228 140.155 14.2749 140.109 14.4177 140.046C14.4984 140.012 14.5264 139.956 14.5046 139.873C14.4674 139.748 14.4332 139.621 14.3929 139.497C14.3556 139.379 14.3184 139.363 14.2035 139.416C13.9769 139.525 13.7379 139.571 13.4895 139.559C13.4243 139.556 13.3591 139.547 13.3001 139.519C13.0828 139.426 13.0487 139.187 13.2318 139.038C13.325 138.963 13.4305 138.91 13.5423 138.864C13.7348 138.783 13.9272 138.708 14.1073 138.609C14.6878 138.289 14.843 137.56 14.4332 137.066C14.2842 136.886 14.0949 136.765 13.8713 136.706C13.7751 136.678 13.7285 136.629 13.7348 136.526C13.7379 136.427 13.7348 136.327 13.7348 136.228C13.7348 136.138 13.6882 136.091 13.6013 136.088C13.4926 136.085 13.3871 136.085 13.2784 136.088C13.1853 136.091 13.1387 136.144 13.1387 136.234C13.1387 136.306 13.1387 136.38 13.1356 136.452C13.1325 136.613 13.1294 136.619 12.9742 136.644C12.7755 136.675 12.583 136.722 12.3999 136.809C12.2602 136.874 12.2478 136.911 12.2881 137.06Z" fill="white"/>
</g>
</g>
<mask id="mask4" mask-type="alpha" maskUnits="userSpaceOnUse" x="0" y="100" width="25" height="25">
<circle cx="12.5" cy="112.5" r="12.5" fill="#084581"/>
</mask>
<g mask="url(#mask4)">
<circle cx="12.5" cy="112.5" r="12.5" fill="#084581"/>
<path d="M13.5742 111.697L11.7836 116.525" stroke="white" stroke-linecap="round"/>
<path d="M10.6024 112.391L9.42125 114.163L10.6024 115.935" stroke="white" stroke-linecap="round" stroke-linejoin="round"/>
<path d="M14.7366 112.391L15.9177 114.002L14.7366 115.935" stroke="white" stroke-linecap="round" stroke-linejoin="round"/>
<path d="M5.58254 118.489V109.335H19.4613V118.489H5.58254Z" stroke="white" stroke-linecap="round" stroke-linejoin="round"/>
<path d="M5.58249 109.335L5.58249 107.563L19.4613 107.563L19.4613 109.335" stroke="white" stroke-linejoin="round"/>
</g>
<mask id="mask5" mask-type="alpha" maskUnits="userSpaceOnUse" x="0" y="75" width="25" height="25">
<circle cx="12.5" cy="87.5" r="12.5" fill="#084581"/>
</mask>
<g mask="url(#mask5)">
<circle cx="12.5" cy="87.5" r="12.5" fill="#084581"/>
<path d="M12.5017 79C9.99959 79 7.97107 79.7394 7.97107 80.652V82.0076C7.97107 82.9203 9.99959 83.6595 12.5017 83.6595C15.0038 83.6595 17.0323 82.9202 17.0323 82.0076V80.652C17.0323 79.7394 15.0038 79 12.5017 79Z" fill="white"/>
<path d="M12.5011 84.4495C10.1122 84.4495 8.14267 83.775 7.97045 82.9196C7.96223 82.9605 7.97045 85.1583 7.97045 85.1583C7.97045 86.0711 9.99896 86.8103 12.5011 86.8103C15.0032 86.8103 17.0317 86.0709 17.0317 85.1583C17.0317 85.1583 17.0368 82.9603 17.0287 82.9196C16.8562 83.7751 14.8899 84.4495 12.5011 84.4495Z" fill="white"/>
<path d="M17.0274 86.1092C16.8553 86.964 14.89 87.6389 12.5011 87.6389C10.1122 87.6389 8.14219 86.9639 7.96997 86.1092L7.97043 88.348C7.97043 89.2607 9.99895 89.9999 12.5011 89.9999C15.0032 89.9999 17.0317 89.2604 17.0317 88.348L17.0274 86.1092Z" fill="white"/>
<path d="M10.3242 95.2676H9.04004L8.7959 96H8.01709L9.34033 92.4453H10.019L11.3496 96H10.5708L10.3242 95.2676ZM9.23779 94.6743H10.1265L9.67969 93.3438L9.23779 94.6743ZM12.4141 94.7476V96H11.6816V92.4453H13.0684C13.3353 92.4453 13.5697 92.4941 13.7715 92.5918C13.9749 92.6895 14.1312 92.8286 14.2402 93.0093C14.3493 93.1883 14.4038 93.3926 14.4038 93.6221C14.4038 93.9704 14.2842 94.2454 14.0449 94.4473C13.8073 94.6475 13.4777 94.7476 13.0562 94.7476H12.4141ZM12.4141 94.1543H13.0684C13.262 94.1543 13.4093 94.1087 13.5103 94.0176C13.6128 93.9264 13.6641 93.7962 13.6641 93.627C13.6641 93.4528 13.6128 93.312 13.5103 93.2046C13.4077 93.0972 13.2661 93.0418 13.0854 93.0386H12.4141V94.1543ZM15.688 96H14.9556V92.4453H15.688V96Z" fill="white"/>
</g>
<mask id="mask6" mask-type="alpha" maskUnits="userSpaceOnUse" x="0" y="25" width="25" height="25">
<circle cx="12.5" cy="37.5" r="12.5" fill="#084581"/>
</mask>
<g mask="url(#mask6)">
<circle cx="12.5" cy="37.5" r="12.5" fill="#084581"/>
<path d="M12.6619 40.4752L7.70312 38.0563V41.2494L12.6621 43.4516L17.6211 41.2494V38.056L12.6619 40.4752Z" fill="white"/>
<path d="M20.3238 35.7376L12.6619 32L5 35.7376L12.6619 39.4751L18.5201 36.6174V39.9442H19.419V36.1789L20.3238 35.7376Z" fill="white"/>
</g>
<mask id="mask7" mask-type="alpha" maskUnits="userSpaceOnUse" x="0" y="0" width="25" height="25">
<circle cx="12.5" cy="12.5" r="12.5" fill="#084581"/>
</mask>
<g mask="url(#mask7)">
<circle cx="12.5" cy="12.5" r="12.5" fill="#084581"/>
<path d="M19.9125 23.2649L15.9877 20.9707L15.8064 20.3447C15.7521 20.135 15.6663 19.9253 15.4896 19.8702C15.4335 19.8527 15.3625 19.7395 15.3533 19.6604L15.2486 18.4432C15.2428 18.3389 15.2806 18.2454 15.3304 18.1797C15.6311 17.7814 15.795 17.3202 15.8644 16.7928C15.8992 16.5277 16.0241 16.2831 16.0882 16.022L16.3398 14.5664C16.3661 14.3753 16.361 14.228 16.1677 14.1539C16.1144 14.1334 16.068 14.0358 16.068 13.8894L16.0706 11.143C16.0295 10.4783 15.7111 9.96432 15.2595 9.60657C14.3967 8.92312 12.8518 9.24004 13.356 8.12522C13.3858 8.05961 13.3763 7.94561 13.169 8.02988C12.3956 8.3444 10.3356 9.17545 9.81807 9.60657C9.3549 9.99237 9.04807 10.4783 9.00695 11.143L9.0095 13.8894C9.0095 14.0103 8.96314 14.1334 8.90976 14.1539C8.71644 14.228 8.71138 14.3753 8.73765 14.5664L8.98937 16.022C9.05335 16.2831 9.17825 16.5277 9.21316 16.7928C9.28242 17.3202 9.44644 17.7814 9.74707 18.1797C9.79683 18.2454 9.83469 18.3389 9.82893 18.4432L9.72417 19.6604C9.71497 19.7395 9.64386 19.8527 9.58785 19.8702C9.41116 19.9253 9.32524 20.135 9.27101 20.3447L9.08966 20.9707L5.16465 23.2649C5.06335 23.324 5 23.4403 5 23.5669V25.1732C5 25.3619 5.13846 25.5149 5.3092 25.5149H19.768C19.9388 25.5149 20.0772 25.3619 20.0772 25.1732V23.5669C20.0772 23.4403 20.0138 23.324 19.9125 23.2649Z" fill="#FFFFFD"/>
</g>
<mask id="mask8" mask-type="alpha" maskUnits="userSpaceOnUse" x="0" y="50" width="25" height="25">
<circle cx="12.5" cy="62.5" r="12.5" fill="#084581"/>
</mask>
<g mask="url(#mask8)">
<circle cx="12.5" cy="62.5" r="12.5" fill="#084581"/>
<g clip-path="url(#clip3)">
<path d="M19.6013 65.6843C19.3134 65.6625 18.7156 65.9854 18.5498 66.0661C17.9646 66.3579 17.1571 66.8143 16.6251 67.1775C16.5876 67.2023 16.5375 67.2365 16.4999 67.2582C16.2621 67.4103 16.0086 67.5127 15.7269 67.5717C14.1809 67.8977 11.9276 67.9349 11.9276 67.9349L11.7962 67.9412C11.6961 67.9474 11.6084 67.8791 11.5959 67.7828C11.5803 67.6773 11.6585 67.581 11.768 67.5717L15.1198 67.2551C15.4891 67.2147 15.7833 66.8732 15.7426 66.4883C15.7019 66.1034 15.3451 65.8209 14.9758 65.8612L11.9965 65.824C11.7931 65.8209 11.4676 65.7712 11.2736 65.7153C9.35202 65.1596 8.2692 65.6812 7.69336 65.9233C7.56505 65.7122 7.32094 65.5756 7.04867 65.5942L5.76242 65.6781C5.33367 65.706 5.01133 66.0599 5.04263 66.4697L5.24918 69.3009C5.27734 69.7107 5.64976 70.018 6.07538 69.99L7.36163 69.9062C7.6339 69.8876 7.85297 69.7231 7.94998 69.4964L13.5957 69.7386C14.2247 69.8038 14.8131 69.7293 15.367 69.4406L15.5298 69.3568L19.7953 66.8795C20.005 66.7584 20.1552 66.5473 20.1615 66.3113C20.174 66.0288 20.0082 65.7122 19.6013 65.6843ZM6.54794 69.3195C6.30697 69.3195 6.1098 69.1332 6.1098 68.9004C6.1098 68.6676 6.30697 68.4813 6.54794 68.4813C6.78892 68.4813 6.98608 68.6676 6.98608 68.9004C6.98608 69.1332 6.78892 69.3195 6.54794 69.3195Z" fill="white"/>
<path d="M16.5625 66.5659C16.9975 66.2648 17.8894 65.7836 18.3933 65.5321C18.5466 65.4576 18.7062 65.38 18.8783 65.321C18.6593 65.1751 18.4245 65.1689 18.1804 65.262C17.7016 65.4514 16.8191 65.8736 16.3684 66.1158C16.3653 66.122 16.3622 66.1282 16.3622 66.1344C16.3935 66.2275 16.4185 66.3237 16.4279 66.4231C16.4373 66.5038 16.4342 66.5814 16.431 66.659C16.4717 66.628 16.5155 66.5969 16.5625 66.5659Z" fill="white"/>
<path d="M17.7141 64.9795C17.4951 64.8398 17.2635 64.8336 17.0256 64.9267C16.7283 65.0416 16.068 65.2558 15.7738 65.411C15.899 65.4886 16.0116 65.5849 16.1087 65.6966C16.1274 65.6842 16.1462 65.6687 16.1681 65.6563L16.3841 65.5383C16.697 65.3676 17.3699 65.1316 17.7141 64.9795Z" fill="white"/>
<path d="M17.2855 59.4724C18.1211 59.1185 18.7094 58.2927 18.7094 57.3334C18.7094 56.0482 17.6579 55.0083 16.3654 55.0083C15.0729 55.0083 14.0214 56.0513 14.0214 57.3334C14.0214 57.3459 14.0245 57.3583 14.0245 57.3707C15.4171 57.5166 16.6126 58.3268 17.2855 59.4724Z" fill="white"/>
<path d="M13.5769 64.9827C15.4578 64.9827 16.9819 63.4708 16.9819 61.6051C16.9819 59.7394 15.4578 58.2275 13.5769 58.2275C11.6961 58.2275 10.172 59.7394 10.172 61.6051C10.172 63.4708 11.6961 64.9827 13.5769 64.9827ZM12.3877 62.94C12.419 62.8282 12.4503 62.7165 12.4847 62.6078C12.5254 62.4805 12.5598 62.465 12.6788 62.524C12.8822 62.6295 13.095 62.6854 13.3203 62.7133C13.4643 62.732 13.6082 62.7165 13.7397 62.6575C13.9901 62.5488 14.0307 62.2601 13.8179 62.0894C13.7459 62.0304 13.6646 61.9869 13.5801 61.9497C13.361 61.8534 13.1326 61.782 12.9229 61.6579C12.588 61.4592 12.3721 61.1829 12.3971 60.7793C12.4253 60.3199 12.6882 60.0343 13.1106 59.8822C13.2859 59.8201 13.2859 59.8201 13.289 59.64C13.289 59.5779 13.289 59.5158 13.289 59.4569C13.2922 59.3203 13.3172 59.2954 13.4518 59.2923C13.4956 59.2923 13.5363 59.2923 13.5801 59.2923C13.8711 59.2923 13.8711 59.2923 13.8743 59.581C13.8743 59.7859 13.8743 59.7859 14.0808 59.8201C14.2373 59.8449 14.3906 59.8915 14.5346 59.9536C14.616 59.9877 14.6441 60.0436 14.6222 60.1274C14.5847 60.2516 14.5502 60.3789 14.5096 60.503C14.472 60.621 14.4344 60.6365 14.3187 60.5837C14.0902 60.4751 13.8492 60.4285 13.5989 60.4409C13.5331 60.444 13.4674 60.4534 13.408 60.4813C13.1889 60.5744 13.1545 60.8135 13.3391 60.9625C13.433 61.037 13.5394 61.0898 13.6521 61.1363C13.8461 61.217 14.0401 61.2915 14.2216 61.3909C14.8069 61.7106 14.9633 62.4402 14.5502 62.9338C14.4 63.1138 14.2091 63.2349 13.9838 63.2939C13.8868 63.3218 13.8398 63.3715 13.8461 63.4739C13.8492 63.5733 13.8461 63.6726 13.8461 63.7719C13.8461 63.862 13.7991 63.9085 13.7115 63.9116C13.602 63.9147 13.4956 63.9147 13.386 63.9116C13.2922 63.9085 13.2452 63.8558 13.2452 63.7657C13.2452 63.6943 13.2452 63.6198 13.2421 63.5484C13.239 63.387 13.2358 63.3808 13.0794 63.356C12.8791 63.3249 12.685 63.2783 12.5004 63.1914C12.3596 63.1262 12.347 63.089 12.3877 62.94Z" fill="white"/>
</g>
</g>
<mask id="mask9" mask-type="alpha" maskUnits="userSpaceOnUse" x="0" y="225" width="25" height="25">
<circle cx="12.5" cy="237.5" r="12.5" fill="#084581"/>
</mask>
<g mask="url(#mask9)">
<circle cx="12.5" cy="237.5" r="12.5" fill="#084581"/>
<path d="M7.86133 242.758C6.68945 242.429 6.10352 241.672 6.10352 240.487V239.516C6.10352 238.829 5.8138 238.485 5.23438 238.485V237.475C5.80078 237.475 6.09049 237.151 6.10352 236.503V235.468C6.10352 234.866 6.25 234.379 6.54297 234.008C6.83594 233.637 7.27539 233.368 7.86133 233.202L8.13477 233.988C7.88737 234.079 7.7002 234.239 7.57324 234.467C7.44629 234.691 7.37956 235.004 7.37305 235.404V236.43C7.37305 237.165 7.08171 237.681 6.49902 237.978C7.08171 238.277 7.37305 238.796 7.37305 239.535V240.57C7.38932 241.332 7.64323 241.798 8.13477 241.967L7.86133 242.758ZM15.9375 241.967C16.4323 241.791 16.6862 241.319 16.6992 240.551V239.516C16.6992 238.78 16.9971 238.269 17.5928 237.982C16.9971 237.696 16.6992 237.177 16.6992 236.425V235.404C16.6862 234.646 16.4323 234.174 15.9375 233.988L16.2109 233.202C16.7936 233.365 17.2314 233.632 17.5244 234.003C17.8174 234.371 17.9655 234.854 17.9688 235.453V236.503C17.9818 237.151 18.2715 237.475 18.8379 237.475V238.485C18.2585 238.485 17.9688 238.826 17.9688 239.506V240.565C17.9427 241.705 17.3568 242.436 16.2109 242.758L15.9375 241.967Z" fill="#FFFDF4"/>
<path d="M7.86133 242.758L7.8073 242.95L7.98878 243.001L8.05035 242.823L7.86133 242.758ZM5.23438 238.485H5.03437V238.685H5.23438V238.485ZM5.23438 237.475V237.275H5.03437V237.475H5.23438ZM6.10352 236.503L6.30352 236.507V236.503H6.10352ZM7.86133 233.202L8.05023 233.136L7.98827 232.958L7.80681 233.01L7.86133 233.202ZM8.13477 233.988L8.20391 234.176L8.38818 234.108L8.32366 233.923L8.13477 233.988ZM7.57324 234.467L7.74736 234.565L7.74796 234.564L7.57324 234.467ZM7.37305 235.404L7.17305 235.401V235.404H7.37305ZM6.49902 237.978L6.40839 237.799L6.05961 237.977L6.4076 238.155L6.49902 237.978ZM7.37305 240.57H7.173L7.17309 240.575L7.37305 240.57ZM8.13477 241.967L8.32379 242.032L8.38921 241.843L8.19989 241.778L8.13477 241.967ZM7.91535 242.565C7.35943 242.409 6.96142 242.157 6.70111 241.821C6.44121 241.485 6.30352 241.046 6.30352 240.487H5.90352C5.90352 241.113 6.05879 241.645 6.38482 242.066C6.71046 242.487 7.19135 242.778 7.8073 242.95L7.91535 242.565ZM6.30352 240.487V239.516H5.90352V240.487H6.30352ZM6.30352 239.516C6.30352 239.149 6.22688 238.837 6.0391 238.614C5.84582 238.385 5.56468 238.285 5.23438 238.285V238.685C5.4835 238.685 5.63693 238.758 5.73336 238.872C5.83529 238.993 5.90352 239.196 5.90352 239.516H6.30352ZM5.43437 238.485V237.475H5.03437V238.485H5.43437ZM5.23438 237.675C5.55618 237.675 5.83204 237.581 6.02553 237.365C6.21472 237.154 6.29646 236.856 6.30348 236.507L5.90356 236.499C5.89755 236.798 5.82793 236.986 5.7274 237.098C5.63118 237.206 5.47898 237.275 5.23438 237.275V237.675ZM6.30352 236.503V235.468H5.90352V236.503H6.30352ZM6.30352 235.468C6.30352 234.898 6.44171 234.459 6.69995 234.132L6.38599 233.884C6.05829 234.299 5.90352 234.833 5.90352 235.468H6.30352ZM6.69995 234.132C6.96019 233.802 7.35874 233.552 7.91585 233.395L7.80681 233.01C7.19204 233.184 6.71168 233.471 6.38599 233.884L6.69995 234.132ZM7.67243 233.268L7.94587 234.054L8.32366 233.923L8.05023 233.136L7.67243 233.268ZM8.06562 233.801C7.7739 233.908 7.54902 234.099 7.39853 234.369L7.74796 234.564C7.85137 234.379 8.00083 234.251 8.20391 234.176L8.06562 233.801ZM7.39913 234.368C7.24911 234.634 7.17985 234.984 7.17307 235.401L7.57302 235.408C7.57926 235.024 7.64346 234.749 7.74735 234.565L7.39913 234.368ZM7.17305 235.404V236.43H7.57305V235.404H7.17305ZM7.17305 236.43C7.17305 236.771 7.10548 237.049 6.98039 237.27C6.85606 237.49 6.66839 237.667 6.40839 237.799L6.58966 238.156C6.91234 237.992 7.16168 237.763 7.32869 237.467C7.49494 237.172 7.57305 236.824 7.57305 236.43H7.17305ZM6.4076 238.155C6.66767 238.289 6.85558 238.467 6.98012 238.689C7.10543 238.913 7.17305 239.192 7.17305 239.535H7.57305C7.57305 239.14 7.49499 238.79 7.32896 238.494C7.16216 238.196 6.91306 237.965 6.59045 237.8L6.4076 238.155ZM7.17305 239.535V240.57H7.57305V239.535H7.17305ZM7.17309 240.575C7.18164 240.974 7.2526 241.316 7.4001 241.586C7.55042 241.862 7.77567 242.055 8.06964 242.156L8.19989 241.778C8.00232 241.71 7.85485 241.585 7.75126 241.395C7.64486 241.2 7.58073 240.928 7.573 240.566L7.17309 240.575ZM7.94574 241.901L7.6723 242.692L8.05035 242.823L8.32379 242.032L7.94574 241.901ZM15.9375 241.967L15.8705 241.778L15.6837 241.845L15.7485 242.032L15.9375 241.967ZM16.6992 240.551L16.8992 240.554V240.551H16.6992ZM17.5928 237.982L17.6794 238.163L18.0543 237.982L17.6794 237.802L17.5928 237.982ZM16.6992 235.404H16.8992L16.8992 235.401L16.6992 235.404ZM15.9375 233.988L15.7486 233.923L15.6845 234.107L15.8673 234.176L15.9375 233.988ZM16.2109 233.202L16.2647 233.01L16.0838 232.959L16.022 233.136L16.2109 233.202ZM17.5244 234.003L17.3674 234.127L17.368 234.128L17.5244 234.003ZM17.9688 235.453H18.1688L18.1687 235.452L17.9688 235.453ZM17.9688 236.503H17.7687L17.7688 236.507L17.9688 236.503ZM18.8379 237.475H19.0379V237.275H18.8379V237.475ZM18.8379 238.485V238.685H19.0379V238.485H18.8379ZM17.9688 240.565L18.1687 240.57V240.565H17.9688ZM16.2109 242.758L16.0219 242.823L16.0835 243.001L16.2651 242.95L16.2109 242.758ZM16.0045 242.155C16.6137 241.939 16.8855 241.36 16.8992 240.554L16.4992 240.547C16.4869 241.278 16.2509 241.643 15.8705 241.778L16.0045 242.155ZM16.8992 240.551V239.516H16.4992V240.551H16.8992ZM16.8992 239.516C16.8992 239.175 16.9682 238.9 17.0954 238.681C17.2219 238.464 17.4132 238.291 17.6794 238.163L17.5061 237.802C17.1766 237.961 16.9212 238.186 16.7498 238.48C16.5792 238.773 16.4992 239.121 16.4992 239.516H16.8992ZM17.6794 237.802C17.4141 237.675 17.2228 237.5 17.0961 237.279C16.9685 237.056 16.8992 236.775 16.8992 236.425H16.4992C16.4992 236.827 16.5789 237.181 16.7491 237.478C16.9202 237.776 17.1758 238.004 17.5061 238.163L17.6794 237.802ZM16.8992 236.425V235.404H16.4992V236.425H16.8992ZM16.8992 235.401C16.8855 234.603 16.6126 234.028 16.0077 233.801L15.8673 234.176C16.252 234.32 16.4869 234.689 16.4992 235.408L16.8992 235.401ZM16.1264 234.054L16.3998 233.268L16.022 233.136L15.7486 233.923L16.1264 234.054ZM16.1571 233.395C16.7105 233.549 17.1072 233.797 17.3674 234.127L17.6814 233.879C17.3557 233.466 16.8768 233.18 16.2647 233.01L16.1571 233.395ZM17.368 234.128C17.6261 234.452 17.7657 234.888 17.7688 235.454L18.1687 235.452C18.1653 234.821 18.0087 234.29 17.6809 233.878L17.368 234.128ZM17.7688 235.453V236.503H18.1687V235.453H17.7688ZM17.7688 236.507C17.7758 236.856 17.8575 237.154 18.0467 237.365C18.2402 237.581 18.5161 237.675 18.8379 237.675V237.275C18.5933 237.275 18.4411 237.206 18.3449 237.098C18.2443 236.986 18.1747 236.798 18.1687 236.499L17.7688 236.507ZM18.6379 237.475V238.485H19.0379V237.475H18.6379ZM18.8379 238.285C18.5082 238.285 18.2272 238.384 18.0338 238.611C17.8455 238.832 17.7688 239.142 17.7688 239.506H18.1687C18.1687 239.189 18.2368 238.989 18.3383 238.87C18.4345 238.757 18.5882 238.685 18.8379 238.685V238.285ZM17.7688 239.506V240.565H18.1687V239.506H17.7688ZM17.7688 240.561C17.7566 241.096 17.6137 241.519 17.3537 241.843C17.0932 242.168 16.7005 242.412 16.1568 242.565L16.2651 242.95C16.8673 242.781 17.3404 242.499 17.6658 242.093C17.9918 241.687 18.1549 241.174 18.1687 240.57L17.7688 240.561ZM16.4 242.692L16.1265 241.901L15.7485 242.032L16.0219 242.823L16.4 242.692Z" fill="#FFFDF4"/>
<path d="M14.35 237.74C14.55 237.856 14.55 238.144 14.35 238.26L11.05 240.165C10.85 240.281 10.6 240.136 10.6 239.905L10.6 236.095C10.6 235.864 10.85 235.719 11.05 235.835L14.35 237.74Z" fill="#FFFDF4" stroke="#FFFDF4" stroke-width="0.2"/>
</g>
<mask id="mask10" mask-type="alpha" maskUnits="userSpaceOnUse" x="0" y="250" width="25" height="25">
<circle cx="12.5" cy="262.5" r="12.5" fill="#084581"/>
</mask>
<g mask="url(#mask10)">
<circle cx="12.5" cy="262.5" r="12.5" fill="#084581"/>
<path d="M7 256C7 255.448 7.44772 255 8 255H13.8348V258.167C13.8348 258.719 14.2825 259.167 14.8348 259.167H18.2923V269C18.2923 269.552 17.8446 270 17.2923 270H8C7.44772 270 7 269.552 7 269V256Z" fill="#FFFDF4"/>
<path d="M15.8499 258.265C15.3041 258.265 14.8707 257.841 14.8707 257.308L14.8707 255L18.2879 258.265L15.8499 258.265Z" fill="#FFFDF4"/>
<g clip-path="url(#clip4)">
<path d="M12.3293 266.443C12.572 266.69 12.7103 266.7 12.9628 266.443L14.8189 264.503C14.9932 264.203 14.8506 263.958 14.5022 263.958H13.6676V262.083C13.6677 261.853 13.4846 261.667 13.2591 261.667H12.0333C11.8077 261.667 11.6247 261.853 11.6247 262.083V263.958H10.7899C10.4415 263.958 10.2989 264.203 10.4732 264.503L12.3293 266.443ZM15.5064 267.292H9.78592C9.56039 267.292 9.37732 267.478 9.37732 267.708V267.917C9.37732 268.147 9.56039 268.333 9.78592 268.333H15.5064C15.7319 268.333 15.915 268.147 15.915 267.917V267.708C15.915 267.478 15.7319 267.292 15.5064 267.292Z" fill="#084581"/>
</g>
</g>
<defs>
<clipPath id="clip0">
<rect width="13" height="13" fill="white" transform="translate(6 181.18)"/>
</clipPath>
<clipPath id="clip1">
<rect width="17" height="17" fill="white" transform="translate(4 154)"/>
</clipPath>
<clipPath id="clip2">
<rect width="15" height="15" fill="white" transform="matrix(1 0 0 -1 5 145)"/>
</clipPath>
<clipPath id="clip3">
<rect width="15.1216" height="15" fill="white" transform="translate(5.04053 55)"/>
</clipPath>
<clipPath id="clip4">
<rect width="6.53766" height="6.66667" fill="white" transform="translate(9.37732 261.667)"/>
</clipPath>
</defs>
</svg>
